<?xml version="1.0" standalone="no"?><!-- Generator: Gravit.io --><svg xmlns="http://www.w3.org/2000/svg" xmlns:xlink="http://www.w3.org/1999/xlink" style="isolation:isolate" viewBox="0 0 16 16" width="16" height="16"><defs><clipPath id="_clipPath_iWLjAMqrDpeyb5xmwiMaCXsACNGvgjZf"><rect width="16" height="16"/></clipPath></defs><g clip-path="url(#_clipPath_iWLjAMqrDpeyb5xmwiMaCXsACNGvgjZf)"><path d=" M 8.291 7.92 L 8.291 7.92 L 8.291 7.92 Q 8.344 8.037 8.215 8.107 L 8.215 8.107 L 8.215 8.107 Q 6.914 8.793 5.73 8.157 L 5.73 8.157 L 5.73 8.157 Q 4.547 7.521 4.462 6.291 L 4.462 6.291 L 4.462 6.291 Q 4.377 5.061 5.171 4.103 L 5.171 4.103 L 5.171 4.103 Q 5.965 3.145 7.389 3.109 L 7.389 3.109 L 7.389 3.109 Q 7.951 3.098 8.511 3.335 L 8.511 3.335 L 8.511 3.335 Q 9.07 3.572 9.316 3.783 L 9.316 3.783 L 9.316 3.783 Q 9.914 4.316 10.339 4.63 L 10.339 4.63 L 10.339 4.63 Q 10.764 4.943 11.215 4.721 L 11.215 4.721 L 11.215 4.721 Q 11.361 4.639 11.432 4.747 L 11.432 4.747 L 11.432 4.747 Q 11.502 4.855 11.285 4.996 L 11.285 4.996 L 11.285 4.996 Q 10.002 5.816 9.914 6.443 L 9.914 6.443 L 9.914 6.443 Q 9.826 7.07 10.793 8.529 L 10.793 8.529 L 10.793 8.529 Q 11.695 9.895 11.429 10.876 L 11.429 10.876 L 11.429 10.876 Q 11.162 11.857 10.207 12.549 L 10.207 12.549 L 10.207 12.549 Q 9.287 13.211 8.188 13.319 L 8.188 13.319 L 8.188 13.319 Q 7.09 13.428 6.123 12.566 L 6.123 12.566 L 6.123 12.566 Q 5.654 12.145 5.256 11.796 L 5.256 11.796 L 5.256 11.796 Q 4.857 11.447 4.277 11.816 L 4.277 11.816 L 4.277 11.816 Q 4.125 11.928 4.037 11.84 L 4.037 11.84 L 4.037 11.84 Q 3.949 11.752 4.055 11.641 L 4.055 11.641 L 4.055 11.641 Q 5.818 9.848 7.5 11.705 L 7.5 11.705 L 7.5 11.705 Q 8.273 12.549 8.895 12.648 L 8.895 12.648 L 8.895 12.648 Q 9.516 12.748 9.973 12.338 L 9.973 12.338 L 9.973 12.338 Q 10.412 11.922 10.33 11.301 L 10.33 11.301 L 10.33 11.301 Q 10.248 10.68 9.563 9.625 L 9.563 9.625 L 9.563 9.625 Q 8.602 8.172 8.634 7.41 L 8.634 7.41 L 8.634 7.41 Q 8.666 6.648 9.773 5.752 L 9.773 5.752 L 9.773 5.752 Q 9.844 5.693 9.826 5.635 L 9.826 5.635 L 9.826 5.635 Q 9.809 5.576 9.715 5.582 L 9.715 5.582 L 9.715 5.582 Q 8.994 5.576 8.353 4.949 L 8.353 4.949 L 8.353 4.949 Q 7.711 4.322 6.779 4.305 L 6.779 4.305 L 6.779 4.305 Q 5.918 4.357 5.461 4.894 L 5.461 4.894 L 5.461 4.894 Q 5.004 5.43 5.098 6.449 L 5.098 6.449 L 5.098 6.449 Q 5.191 7.469 6.149 7.894 L 6.149 7.894 L 6.149 7.894 Q 7.107 8.318 8.092 7.885 L 8.092 7.885 L 8.092 7.885 Q 8.232 7.82 8.291 7.92 Z " fill="rgb(0,0,0)"/></g></svg>